<svg xmlns="http://www.w3.org/2000/svg" xmlns:svg="http://www.w3.org/2000/svg" id="svg8" width="20" height="20" version="1.1" viewBox="0 0 5.292 5.292"><metadata id="metadata5"/><g id="layer1" transform="translate(0,-291.70832)"><g style="stroke:#494949;stroke-opacity:1" id="g6154" transform="matrix(0.03735995,0,0,0.03735995,-10.430149,281.27817)"><ellipse id="path3890" cx="350" cy="350" rx="66.418" ry="67.534" style="fill:#000;fill-opacity:0;stroke:#a31811;stroke-width:4.39063168;stroke-miterlimit:4;stroke-dasharray:none;stroke-opacity:1"/><path style="fill:#a31811;fill-opacity:1;fill-rule:evenodd;stroke:none;stroke-width:6.43399334" id="path921" d="m 337.16298,320.9772 a 9.6277617,9.6742727 0 0 1 9.62775,-9.67427 h 6.41852 a 9.6277617,9.6742727 0 0 1 9.62775,9.67427 v 6.44952 a 9.6277617,9.6742727 0 0 1 -9.62775,9.67426 v 6.44953 h 35.30179 a 3.2092539,3.2247574 0 0 1 3.20926,3.22475 v 6.44951 a 3.2092559,3.2247595 0 0 1 -6.41851,0 v -3.22476 h -32.09254 v 3.22476 a 3.2092601,3.2247638 0 0 1 -6.41852,0 v -3.22476 h -32.09252 v 3.22476 a 3.2092601,3.2247636 0 0 1 -6.41852,0 v -6.44951 a 3.2092539,3.2247574 0 0 1 3.20926,-3.22475 h 35.30178 v -6.44953 a 9.6277617,9.6742727 0 0 1 -9.62775,-9.67426 z m 16.04627,9.67427 a 3.2092539,3.2247574 0 0 0 3.20925,-3.22475 v -6.44952 a 3.2092539,3.2247574 0 0 0 -3.20925,-3.22476 h -6.41852 a 3.2092539,3.2247574 0 0 0 -3.20924,3.22476 v 6.44952 a 3.2092539,3.2247574 0 0 0 3.20924,3.22475 z m -54.55731,41.92186 a 9.6277617,9.6742727 0 0 1 9.62775,-9.67428 h 6.41852 a 9.6277617,9.6742727 0 0 1 9.62775,9.67428 v 6.4495 a 9.6277617,9.6742727 0 0 1 -9.62775,9.67428 h -6.41852 a 9.6277617,9.6742727 0 0 1 -9.62775,-9.67428 z m 9.62775,-3.22477 a 3.2092539,3.2247574 0 0 0 -3.20926,3.22477 v 6.4495 a 3.2092539,3.2247574 0 0 0 3.20926,3.22476 h 6.41852 a 3.2092539,3.2247574 0 0 0 3.20925,-3.22476 v -6.4495 a 3.2092539,3.2247574 0 0 0 -3.20925,-3.22477 z m 28.88329,3.22477 a 9.6277617,9.6742727 0 0 1 9.62775,-9.67428 h 6.41852 a 9.6277617,9.6742727 0 0 1 9.62775,9.67428 v 6.4495 a 9.6277617,9.6742727 0 0 1 -9.62775,9.67428 h -6.41852 a 9.6277617,9.6742727 0 0 1 -9.62775,-9.67428 z m 9.62775,-3.22477 a 3.2092539,3.2247574 0 0 0 -3.20924,3.22477 v 6.4495 a 3.2092539,3.2247574 0 0 0 3.20924,3.22476 h 6.41852 a 3.2092539,3.2247574 0 0 0 3.20925,-3.22476 v -6.4495 a 3.2092539,3.2247574 0 0 0 -3.20925,-3.22477 z m 28.8833,3.22477 a 9.6277617,9.6742727 0 0 1 9.62776,-9.67428 h 6.41851 a 9.6277617,9.6742727 0 0 1 9.62775,9.67428 v 6.4495 a 9.6277617,9.6742727 0 0 1 -9.62775,9.67428 h -6.41851 a 9.6277617,9.6742727 0 0 1 -9.62776,-9.67428 z m 9.62776,-3.22477 a 3.2092539,3.2247574 0 0 0 -3.20926,3.22477 v 6.4495 a 3.2092539,3.2247574 0 0 0 3.20926,3.22476 h 6.41851 a 3.2092539,3.2247574 0 0 0 3.20926,-3.22476 v -6.4495 a 3.2092539,3.2247574 0 0 0 -3.20926,-3.22477 z"/></g></g></svg>