<svg xmlns="http://www.w3.org/2000/svg" xmlns:svg="http://www.w3.org/2000/svg" id="svg8" width="20" height="20" version="1.1" viewBox="0 0 5.292 5.292"><metadata id="metadata5"/><g id="layer1" transform="translate(0,-291.70832)"><g style="stroke:#494949;stroke-opacity:1" id="g6154" transform="matrix(0.03735995,0,0,0.03735995,-10.430149,281.27817)"><g style="fill:currentColor" id="g2197" transform="matrix(7.0820045,0,0,7.0820045,283.22681,288.28542)"><g id="g2374" transform="matrix(0.09142857,0,0,0.09142857,-23.866071,-23.732144)"><ellipse style="fill:#000;fill-opacity:0;stroke:#494949;stroke-width:6.73405504;stroke-miterlimit:4;stroke-dasharray:none;stroke-opacity:1" id="path3890" cx="364.16" cy="354.883" rx="101.867" ry="103.579"/><g id="g2425" transform="matrix(10.224731,0,0,10.224731,282.36231,273.08497)" style="fill:#494949;fill-opacity:1;stroke:none"><path style="fill:#494949;fill-opacity:1;stroke:none" id="path2414" d="M 8,8 A 3,3 0 1 0 8,2 3,3 0 0 0 8,8 Z m 2,-3 a 2,2 0 1 1 -4,0 2,2 0 0 1 4,0 z m 4,8 c 0,1 -1,1 -1,1 H 3 c 0,0 -1,0 -1,-1 0,-1 1,-4 6,-4 5,0 6,3 6,4 z M 13,12.996 C 12.999,12.75 12.846,12.01 12.168,11.332 11.516,10.68 10.289,10 8,10 5.71,10 4.484,10.68 3.832,11.332 3.154,12.01 3.002,12.75 3,12.996 Z"/></g></g></g></g></g></svg>