<svg xmlns="http://www.w3.org/2000/svg" xmlns:svg="http://www.w3.org/2000/svg" id="svg8" width="20" height="20" version="1.1" viewBox="0 0 5.292 5.292"><metadata id="metadata5"/><g id="layer1" transform="translate(0,-291.70832)"><g id="g1684" transform="matrix(0.03744495,0,0,0.03744495,-10.459899,281.24842)"><g id="g3888" transform="matrix(0.1590104,0,0,0.1590104,294.37122,292.48999)" style="stroke:#494949;stroke-opacity:1"><path d="m 350,152 c -102,0 -52,179 0,253 53,-69 86,-253 0,-253 z" style="fill:#fff;stroke:#494949;stroke-width:24;stroke-linecap:round;stroke-linejoin:round;stroke-opacity:1" id="path3859"/><path d="m 570,493 c 0,0 0,143 0,143 -136,61 -304,57 -440,0 0,0 0,-143 0,-143 C 66,415 -44,239 119,218 251,200 326,332 350,460 370,331 449,194 581,218 c 169,29 42,192 -11,275 z" style="fill:#fff;stroke:#494949;stroke-width:24;stroke-linecap:round;stroke-linejoin:round;stroke-opacity:1" id="path3861"/><path d="m 130,493 c 141,-45 299,-42 440,0" style="fill:#fff;stroke:#494949;stroke-width:24;stroke-opacity:1" id="path3863"/><path d="m 130,570 c 141,-45 299,-42 440,0" style="fill:#fff;stroke:#494949;stroke-width:24;stroke-opacity:1" id="path3865"/><path d="m 130,636 c 141,-45 299,-42 440,0" style="fill:#fff;stroke:#494949;stroke-width:24;stroke-opacity:1" id="path3867"/><path d="M 350,31 V 152" style="stroke:#494949;stroke-width:24;stroke-opacity:1" id="path3869"/><path d="M 284,86 H 416" style="stroke:#494949;stroke-width:24;stroke-opacity:1" id="path3871"/></g><ellipse style="fill:#000;fill-opacity:0;stroke:#a31811;stroke-width:4.375;stroke-miterlimit:4;stroke-dasharray:none;stroke-opacity:1" id="path3890" cx="350" cy="350" rx="66.181" ry="67.293"/></g></g></svg>