<svg xmlns="http://www.w3.org/2000/svg" fill="none" viewBox="64 54 780 780"><path stroke="#232A31" stroke-opacity=".1" d="M353.777 343.777C299.479 397.753 298.945 489.717 353.777 544.223"/><path stroke="#232A31" stroke-opacity=".1" d="M353.777 544.223C407.753 598.521 499.716 599.055 554.223 544.223"/><path stroke="#232A31" stroke-opacity=".1" d="M554.223 544.223C608.521 490.247 609.055 398.284 554.223 343.777"/><path stroke="#232A31" stroke-opacity=".1" d="M554.223 343.777C499.717 288.945 407.753 289.479 353.777 343.777"/><path stroke="#232A31" stroke-opacity=".1" d="M187.575 177.575C43.5169 321.06 42.1018 565.531 187.575 710.425"/><path stroke="#232A31" stroke-opacity=".1" d="M187.574 710.425C331.06 854.483 575.529 855.899 720.425 710.425"/><path stroke="#232A31" stroke-opacity=".1" d="M720.425 710.425C864.483 566.94 865.899 322.47 720.425 177.575"/><path stroke="#232A31" stroke-opacity=".1" d="M720.425 177.575C575.531 32.1018 331.06 33.5169 187.574 177.575"/><path stroke="#232A31" stroke-opacity=".1" d="M125 262L331 374"/><path stroke="#232A31" stroke-opacity=".1" d="M783 262L577 373"/><path stroke="#232A31" stroke-opacity=".1" d="M454 819L454 585"/><g filter="url(#filter0_dif_19_1030)"><path fill="#fff" fill-opacity=".01" d="M844 444C844 659.391 669.391 834 454 834C238.609 834 64 659.391 64 444C64 228.609 238.609 54 454 54C669.391 54 844 228.609 844 444Z" shape-rendering="crispEdges"/></g><defs><filter id="filter0_dif_19_1030" width="908" height="908" x="0" y="-2" color-interpolation-filters="sRGB" filterUnits="userSpaceOnUse"><feFlood flood-opacity="0" result="BackgroundImageFix"/><feColorMatrix in="SourceAlpha" result="hardAlpha" type="matrix" values="0 0 0 0 0 0 0 0 0 0 0 0 0 0 0 0 0 0 127 0"/><feOffset dy="8"/><feGaussianBlur stdDeviation="32"/><feComposite in2="hardAlpha" operator="out"/><feColorMatrix type="matrix" values="0 0 0 0 1 0 0 0 0 1 0 0 0 0 1 0 0 0 0.35 0"/><feBlend in2="BackgroundImageFix" mode="normal" result="effect1_dropShadow_19_1030"/><feBlend in="SourceGraphic" in2="effect1_dropShadow_19_1030" mode="normal" result="shape"/><feColorMatrix in="SourceAlpha" result="hardAlpha" type="matrix" values="0 0 0 0 0 0 0 0 0 0 0 0 0 0 0 0 0 0 127 0"/><feOffset dy="12"/><feGaussianBlur stdDeviation="32"/><feComposite in2="hardAlpha" k2="-1" k3="1" operator="arithmetic"/><feColorMatrix type="matrix" values="0 0 0 0 0 0 0 0 0 0 0 0 0 0 0 0 0 0 0.09 0"/><feBlend in2="shape" mode="normal" result="effect2_innerShadow_19_1030"/><feGaussianBlur result="effect3_foregroundBlur_19_1030" stdDeviation="3"/></filter></defs></svg>