<svg xmlns="http://www.w3.org/2000/svg" fill="none" viewBox="26.62 23 46.77 54"><g opacity=".75"><g filter="url(#filter0_i_6_997)"><path fill="#7DB593" d="M50 23L73.3827 36.5V63.5L50 77L26.6173 63.5L26.6173 36.5L50 23Z"/><path fill="url(#paint0_linear_6_997)" fill-opacity=".1" d="M50 23L73.3827 36.5V63.5L50 77L26.6173 63.5L26.6173 36.5L50 23Z" style="mix-blend-mode:overlay"/></g><path stroke="#000" stroke-opacity=".2" d="M27.1173 36.7887L50 23.5774L72.8827 36.7887V63.2113L50 76.4226L27.1173 63.2113L27.1173 36.7887Z" style="mix-blend-mode:overlay"/></g><path fill="#fff" fill-opacity=".25" fill-rule="evenodd" d="M50 58.3334C54.6023 58.3334 58.3333 54.6024 58.3333 50.0001C58.3333 45.3977 54.6023 41.6667 50 41.6667C45.3976 41.6667 41.6666 45.3977 41.6666 50.0001C41.6666 54.6024 45.3976 58.3334 50 58.3334ZM54.3244 48.4915C54.6417 48.1742 54.6417 47.6598 54.3244 47.3425C54.0071 47.0252 53.4927 47.0252 53.1754 47.3425L48.3332 52.1846L46.4077 50.2591C46.0904 49.9418 45.576 49.9418 45.2587 50.2591C44.9414 50.5764 44.9414 51.0909 45.2587 51.4082L47.7587 53.9082C48.076 54.2255 48.5904 54.2255 48.9077 53.9082L54.3244 48.4915Z" clip-rule="evenodd"/><defs><filter id="filter0_i_6_997" width="46.765" height="54" x="26.617" y="23" color-interpolation-filters="sRGB" filterUnits="userSpaceOnUse"><feFlood flood-opacity="0" result="BackgroundImageFix"/><feBlend in="SourceGraphic" in2="BackgroundImageFix" mode="normal" result="shape"/><feColorMatrix in="SourceAlpha" result="hardAlpha" type="matrix" values="0 0 0 0 0 0 0 0 0 0 0 0 0 0 0 0 0 0 127 0"/><feOffset dx="-1" dy="-1"/><feComposite in2="hardAlpha" k2="-1" k3="1" operator="arithmetic"/><feColorMatrix type="matrix" values="0 0 0 0 0 0 0 0 0 0 0 0 0 0 0 0 0 0 0.25 0"/><feBlend in2="shape" mode="overlay" result="effect1_innerShadow_6_997"/></filter><linearGradient id="paint0_linear_6_997" x1="23" x2="77" y1="23" y2="77" gradientUnits="userSpaceOnUse"/></defs></svg>